<svg xmlns="http://www.w3.org/2000/svg">
    <g id="home" fill="white">
            <path d="M3 9L12 2L21 9V20C21 20.5304 20.7893 21.0391 20.4142 21.4142C20.0391 21.7893 19.5304 22 19 22H5C4.46957 22 3.96086 21.7893 3.58579 21.4142C3.21071 21.0391 3 20.5304 3 20V9Z" stroke="#6FD276" stroke-width="2" stroke-linecap="round" stroke-linejoin="round"/>
            <path d="M9 22V12H15V22" stroke="#6FD276" stroke-width="2" stroke-linecap="round" stroke-linejoin="round"/>

    </g>


    <g id="person" fill="white">
        <path d="M20 21V19C20 17.9391 19.5786 16.9217 18.8284 16.1716C18.0783 15.4214 17.0609 15 16 15H8C6.93913 15 5.92172 15.4214 5.17157 16.1716C4.42143 16.9217 4 17.9391 4 19V21" stroke="#6FD276" stroke-width="2" stroke-linecap="round" stroke-linejoin="round"/>
        <path d="M12 11C14.2091 11 16 9.20914 16 7C16 4.79086 14.2091 3 12 3C9.79086 3 8 4.79086 8 7C8 9.20914 9.79086 11 12 11Z" stroke="#6FD276" stroke-width="2" stroke-linecap="round" stroke-linejoin="round"/>
    </g>

    <g id="projects" fill="white">
        <path d="M3 9H21V7.5C21 7.10218 20.842 6.72064 20.5607 6.43934C20.2794 6.15804 19.8978 6 19.5 6H4.5C4.10218 6 3.72064 6.15804 3.43934 6.43934C3.15804 6.72064 3 7.10218 3 7.5V9ZM3 10.5V18C3 18.3978 3.15804 18.7794 3.43934 19.0607C3.72064 19.342 4.10218 19.5 4.5 19.5H19.5C19.8978 19.5 20.2794 19.342 20.5607 19.0607C20.842 18.7794 21 18.3978 21 18V10.5H3ZM4.5 4.5H19.5C20.2956 4.5 21.0587 4.81607 21.6213 5.37868C22.1839 5.94129 22.5 6.70435 22.5 7.5V18C22.5 18.7956 22.1839 19.5587 21.6213 20.1213C21.0587 20.6839 20.2956 21 19.5 21H4.5C3.70435 21 2.94129 20.6839 2.37868 20.1213C1.81607 19.5587 1.5 18.7956 1.5 18V7.5C1.5 6.70435 1.81607 5.94129 2.37868 5.37868C2.94129 4.81607 3.70435 4.5 4.5 4.5Z" fill="#6FD276"/>
        <path d="M9 3V4.5H15V3H9ZM9 1.5H15C15.3978 1.5 15.7794 1.65804 16.0607 1.93934C16.342 2.22064 16.5 2.60218 16.5 3V4.5C16.5 4.89782 16.342 5.27936 16.0607 5.56066C15.7794 5.84196 15.3978 6 15 6H9C8.60218 6 8.22064 5.84196 7.93934 5.56066C7.65804 5.27936 7.5 4.89782 7.5 4.5V3C7.5 2.60218 7.65804 2.22064 7.93934 1.93934C8.22064 1.65804 8.60218 1.5 9 1.5Z" fill="#6FD276"/>
    </g>

    <g id="skills" fill="white">
        <path d="M14.6999 6.79998C14.5166 6.98691 14.414 7.23823 14.414 7.49998C14.414 7.76173 14.5166 8.01305 14.6999 8.19998L16.2999 9.79998C16.4868 9.98321 16.7381 10.0858 16.9999 10.0858C17.2616 10.0858 17.5129 9.98321 17.6999 9.79998L21.4699 6.02998C21.9727 7.14117 22.1249 8.37921 21.9063 9.57913C21.6877 10.779 21.1086 11.8838 20.2461 12.7463C19.3837 13.6087 18.2789 14.1878 17.079 14.4064C15.8791 14.6251 14.641 14.4728 13.5299 13.97L6.61986 20.88C6.22203 21.2778 5.68246 21.5013 5.11986 21.5013C4.55725 21.5013 4.01768 21.2778 3.61986 20.88C3.22203 20.4822 2.99854 19.9426 2.99854 19.38C2.99854 18.8174 3.22203 18.2778 3.61986 17.88L10.5299 10.97C10.027 9.85879 9.87477 8.62075 10.0934 7.42083C10.312 6.22092 10.8911 5.11614 11.7536 4.2537C12.616 3.39127 13.7208 2.81215 14.9207 2.59352C16.1206 2.3749 17.3587 2.52714 18.4699 3.02998L14.7099 6.78998L14.6999 6.79998Z" stroke="#6FD276" stroke-width="2" stroke-linecap="round" stroke-linejoin="round"/>
    </g>

</svg>