<svg xmlns="http://www.w3.org/2000/svg">
    <g id="home">
      <path d="M3 9l9-7 9 7v11a2 2 0 0 1-2 2H5a2 2 0 0 1-2-2z"></path><polyline points="9 22 9 12 15 12 15 22"></polyline>
    </g>


    <g id="person">
        <path d="M20 21v-2a4 4 0 0 0-4-4H8a4 4 0 0 0-4 4v2"></path><circle cx="12" cy="7" r="4"></circle>
    </g>

    <g id="projects">
        <rect x="2" y="7" width="20" height="14" rx="2" ry="2"></rect><path d="M16 21V5a2 2 0 0 0-2-2h-4a2 2 0 0 0-2 2v16"></path>
    </g>

    <g id="skills">
        <path d="M14.7 6.3a1 1 0 0 0 0 1.4l1.6 1.6a1 1 0 0 0 1.4 0l3.77-3.77a6 6 0 0 1-7.94 7.94l-6.91 6.91a2.12 2.12 0 0 1-3-3l6.91-6.91a6 6 0 0 1 7.94-7.94l-3.76 3.76z"></path>
    </g>

</svg>